{
  "source": "C:\\Users\\Peter\\Desktop\\stuff\\MIUN\\quantitative_research\\video_compression\\videos\\BVI-HD\\BVI-HD_CDVL_videos\\ORIG\\Bookcase_1920x1080_60fps.mp4",
  "output": "C:\\Users\\Peter\\Desktop\\stuff\\MIUN\\quantitative_research\\video_compression\\compressed_videos\\BVI-HD\\vp9\\2.5\\Bookcase_1920x1080_60fps_vp9.webm",
  "codec": "vp9",
  "ok": "Input #0, mov,mp4,m4a,3gp,3g2,mj2, from 'C:\\Users\\Peter\\Desktop\\stuff\\MIUN\\quantitative_research\\video_compression\\videos\\BVI-HD\\BVI-HD_CDVL_videos\\ORIG\\Bookcase_1920x1080_60fps.mp4':\n  Metadata:\n    major_brand     : isom\n    minor_version   : 512\n    compatible_brands: isomiso2avc1mp41\n    encoder         : Lavf54.28.101\n  Duration: 00:00:05.00, start: 0.000000, bitrate: 336321 kb/s\n  Stream #0:0[0x1](und): Video: h264 (High 4:4:4 Predictive) (avc1 / 0x31637661), yuv420p(progressive), 1920x1080, 336316 kb/s, 60 fps, 60 tbr, 60 tbn (default)\n    Metadata:\n      handler_name    : VideoHandler\n      vendor_id       : [0][0][0][0]\n[out#0/webm @ 00000216e3a2f040] Codec AVOption b:a (set bitrate (in bits/s)) has not been used for any stream. The most likely reason is either wrong type (e.g. a video option with no video streams) or that it is a private option of some decoder which was not actually used for any stream.\nStream mapping:\n  Stream #0:0 -> #0:0 (h264 (native) -> vp9 (libvpx-vp9))\nPress [q] to stop, [?] for help\n[libvpx-vp9 @ 00000216e30fa000] v1.15.2-100-g40561f514\nOutput #0, webm, to 'C:\\Users\\Peter\\Desktop\\stuff\\MIUN\\quantitative_research\\video_compression\\compressed_videos\\BVI-HD\\vp9\\2.5\\Bookcase_1920x1080_60fps_vp9.webm':\n  Metadata:\n    major_brand     : isom\n    minor_version   : 512\n    compatible_brands: isomiso2avc1mp41\n    encoder         : Lavf62.3.100\n  Stream #0:0(und): Video: vp9, yuv420p(tv, progressive), 1920x1080, q=2-31, 2500 kb/s, 60 fps, 1k tbn (default)\n    Metadata:\n      encoder         : Lavc62.11.100 libvpx-vp9\n      handler_name    : VideoHandler\n      vendor_id       : [0][0][0][0]\n    Side data:\n      cpb: bitrate max/min/avg: 0/0/0 buffer size: 2500000 vbv_delay: N/A\nframe=    0 fps=0.0 q=0.0 size=       0KiB time=N/A bitrate=N/A speed=N/A elapsed=0:00:00.51    \nframe=    9 fps=8.7 q=38.0 size=       1KiB time=00:00:00.15 bitrate=  33.8kbits/s speed=0.146x elapsed=0:00:01.02    \nframe=   16 fps= 10 q=35.0 size=       1KiB time=00:00:00.26 bitrate=  19.0kbits/s speed=0.17x elapsed=0:00:01.56    \nframe=   23 fps= 11 q=37.0 size=       1KiB time=00:00:00.38 bitrate=  13.2kbits/s speed=0.183x elapsed=0:00:02.09    \nframe=   30 fps= 11 q=37.0 size=       1KiB time=00:00:00.50 bitrate=  10.1kbits/s speed=0.189x elapsed=0:00:02.63    \nframe=   37 fps= 12 q=27.0 size=       1KiB time=00:00:00.61 bitrate=   8.2kbits/s speed=0.194x elapsed=0:00:03.18    \nframe=   44 fps= 12 q=34.0 size=       1KiB time=00:00:00.73 bitrate=   6.9kbits/s speed=0.198x elapsed=0:00:03.71    \nframe=   51 fps= 12 q=31.0 size=       1KiB time=00:00:00.85 bitrate=   6.0kbits/s speed=0.201x elapsed=0:00:04.23    \nframe=   58 fps= 12 q=35.0 size=       1KiB time=00:00:00.96 bitrate=   5.2kbits/s speed=0.204x elapsed=0:00:04.74    \nframe=   64 fps= 12 q=37.0 size=       1KiB time=00:00:01.06 bitrate=   4.7kbits/s speed=0.202x elapsed=0:00:05.29    \nframe=   72 fps= 12 q=35.0 size=       1KiB time=00:00:01.20 bitrate=   4.2kbits/s speed=0.206x elapsed=0:00:05.81    \nframe=   78 fps= 12 q=37.0 size=       1KiB time=00:00:01.30 bitrate=   3.9kbits/s speed=0.204x elapsed=0:00:06.36    \nframe=   84 fps= 12 q=38.0 size=       1KiB time=00:00:01.40 bitrate=   3.6kbits/s speed=0.203x elapsed=0:00:06.89    \nframe=   90 fps= 12 q=36.0 size=       1KiB time=00:00:01.50 bitrate=   3.4kbits/s speed=0.202x elapsed=0:00:07.40    \nframe=   96 fps= 12 q=38.0 size=       1KiB time=00:00:01.60 bitrate=   3.2kbits/s speed=0.202x elapsed=0:00:07.93    \nframe=  102 fps= 12 q=31.0 size=       1KiB time=00:00:01.70 bitrate=   3.0kbits/s speed=0.201x elapsed=0:00:08.45    \nframe=  108 fps= 12 q=30.0 size=       1KiB time=00:00:01.80 bitrate=   2.8kbits/s speed= 0.2x elapsed=0:00:08.97    \nframe=  114 fps= 12 q=35.0 size=       1KiB time=00:00:01.90 bitrate=   2.7kbits/s speed= 0.2x elapsed=0:00:09.51    \nframe=  119 fps= 12 q=21.0 size=       1KiB time=00:00:01.98 bitrate=   2.6kbits/s speed=0.197x elapsed=0:00:10.05    \nframe=  124 fps= 12 q=30.0 size=       1KiB time=00:00:02.06 bitrate=   2.5kbits/s speed=0.196x elapsed=0:00:10.55    \nframe=  128 fps= 12 q=30.0 size=       1KiB time=00:00:02.13 bitrate=   2.4kbits/s speed=0.193x elapsed=0:00:11.07    \nframe=  134 fps= 12 q=31.0 size=     512KiB time=00:00:02.23 bitrate=1878.0kbits/s speed=0.192x elapsed=0:00:11.60    \nframe=  139 fps= 11 q=36.0 size=     512KiB time=00:00:02.31 bitrate=1810.5kbits/s speed=0.191x elapsed=0:00:12.13    \nframe=  145 fps= 11 q=44.0 size=     512KiB time=00:00:02.41 bitrate=1735.6kbits/s speed=0.191x elapsed=0:00:12.65    \nframe=  152 fps= 12 q=31.0 size=     512KiB time=00:00:02.53 bitrate=1655.6kbits/s speed=0.192x elapsed=0:00:13.17    \nframe=  159 fps= 12 q=34.0 size=     512KiB time=00:00:02.65 bitrate=1582.8kbits/s speed=0.194x elapsed=0:00:13.68    \nframe=  166 fps= 12 q=31.0 size=     512KiB time=00:00:02.76 bitrate=1516.0kbits/s speed=0.195x elapsed=0:00:14.20    \nframe=  173 fps= 12 q=42.0 size=     512KiB time=00:00:02.88 bitrate=1454.7kbits/s speed=0.196x elapsed=0:00:14.72    \nframe=  179 fps= 12 q=45.0 size=     512KiB time=00:00:02.98 bitrate=1405.9kbits/s speed=0.196x elapsed=0:00:15.24    \nframe=  186 fps= 12 q=39.0 size=     512KiB time=00:00:03.10 bitrate=1353.0kbits/s speed=0.197x elapsed=0:00:15.77    \nframe=  192 fps= 12 q=41.0 size=     512KiB time=00:00:03.20 bitrate=1310.7kbits/s speed=0.196x elapsed=0:00:16.29    \nframe=  199 fps= 12 q=50.0 size=     512KiB time=00:00:03.31 bitrate=1264.6kbits/s speed=0.197x elapsed=0:00:16.80    \nframe=  205 fps= 12 q=39.0 size=     512KiB time=00:00:03.41 bitrate=1227.6kbits/s speed=0.197x elapsed=0:00:17.34    \nframe=  211 fps= 12 q=37.0 size=     512KiB time=00:00:03.51 bitrate=1192.7kbits/s speed=0.197x elapsed=0:00:17.85    \nframe=  219 fps= 12 q=47.0 size=     512KiB time=00:00:03.65 bitrate=1149.1kbits/s speed=0.199x elapsed=0:00:18.37    \nframe=  225 fps= 12 q=39.0 size=     512KiB time=00:00:03.75 bitrate=1118.5kbits/s speed=0.198x elapsed=0:00:18.91    \nframe=  232 fps= 12 q=37.0 size=     512KiB time=00:00:03.86 bitrate=1084.7kbits/s speed=0.199x elapsed=0:00:19.42    \nframe=  239 fps= 12 q=33.0 size=     512KiB time=00:00:03.98 bitrate=1053.0kbits/s speed= 0.2x elapsed=0:00:19.94    \nframe=  246 fps= 12 q=30.0 size=     512KiB time=00:00:04.10 bitrate=1023.0kbits/s speed= 0.2x elapsed=0:00:20.49    \nframe=  254 fps= 12 q=41.0 size=     512KiB time=00:00:04.23 bitrate= 990.8kbits/s speed=0.201x elapsed=0:00:21.01    \nframe=  260 fps= 12 q=36.0 size=    1536KiB time=00:00:04.33 bitrate=2903.7kbits/s speed=0.201x elapsed=0:00:21.54    \nframe=  268 fps= 12 q=34.0 size=    1536KiB time=00:00:04.46 bitrate=2817.1kbits/s speed=0.202x elapsed=0:00:22.06    \nframe=  275 fps= 12 q=42.0 size=    1536KiB time=00:00:04.58 bitrate=2745.4kbits/s speed=0.203x elapsed=0:00:22.59    \nframe=  276 fps= 12 q=43.0 size=    1536KiB time=00:00:04.60 bitrate=2735.4kbits/s speed=0.199x elapsed=0:00:23.12    \nframe=  276 fps= 12 q=43.0 size=    1536KiB time=00:00:04.60 bitrate=2735.4kbits/s speed=0.195x elapsed=0:00:23.64    \nframe=  276 fps= 11 q=43.0 size=    1536KiB time=00:00:04.60 bitrate=2735.4kbits/s speed=0.19x elapsed=0:00:24.19    \n[out#0/webm @ 00000216e3a2f040] video:1891KiB audio:0KiB subtitle:0KiB other streams:0KiB global headers:0KiB muxing overhead: 0.147259%\nframe=  300 fps= 12 q=44.0 Lsize=    1893KiB time=00:00:05.00 bitrate=3102.2kbits/s speed=0.204x elapsed=0:00:24.48    \n",
  "seconds": 24.70398473739624,
  "probe_out": {}
}